<?xml version="1.0" encoding="utf-8"?>
<!-- Generator: Adobe Illustrator 18.1.1, SVG Export Plug-In . SVG Version: 6.00 Build 0)  -->
<!DOCTYPE svg PUBLIC "-//W3C//DTD SVG 1.1//EN" "http://www.w3.org/Graphics/SVG/1.1/DTD/svg11.dtd">
<svg version="1.1" xmlns="http://www.w3.org/2000/svg" xmlns:xlink="http://www.w3.org/1999/xlink" x="0px" y="0px" viewBox="0 0 100 100" enable-background="new 0 0 100 100" xml:space="preserve">
  <path class="top-left" fill="#f9ad33" d="M38.7,7.3C18.6,7.3,8.3,18.9,8.3,40.6l0,0v15.1V86L28,66.2V43.2c0-9,2.4-14.7,10.3-15.9l0,0c2.8-0.5,8.6-0.4,12.3-0.4l0,0v13.7c0,0.1,0,0.3,0,0.5l0,0c0.2,0.6,0.7,1,1.2,1l0,0c0.3,0,0.7-0.2,1-0.5l0,0L87.1,7.3l-22.9,0H38.7z"/>
  <path class="bottom-right" fill="#89b443" d="M73.3,33.1v23.1c0,9-2.4,14.7-10.3,15.9l0,0c-2.8,0.5-8.6,0.4-12.3,0.4l0,0V58.8c0-0.1,0-0.3,0-0.5l0,0c-0.2-0.6-0.7-1-1.2-1l0,0c-0.3,0-0.7,0.2-1,0.5l0,0L14.2,92l22.9,0h25.4C82.7,92,93,80.4,93,58.8l0,0V43.7V13.4L73.3,33.1z"/>
</svg>
