<?xml version="1.0" encoding="utf-8"?>
<!-- Generator: Adobe Illustrator 18.1.1, SVG Export Plug-In . SVG Version: 6.00 Build 0)  -->
<!DOCTYPE svg PUBLIC "-//W3C//DTD SVG 1.1//EN" "http://www.w3.org/Graphics/SVG/1.1/DTD/svg11.dtd">
<svg version="1.1" xmlns="http://www.w3.org/2000/svg" xmlns:xlink="http://www.w3.org/1999/xlink" x="0px" y="0px" viewBox="0 0 100 100" enable-background="new 0 0 100 100" xml:space="preserve">
<path fill-rule="evenodd" clip-rule="evenodd" d="M50.7,4.5c-26,0-47.1,21.1-47.1,47.1c0,20.8,13.5,38.4,32.2,44.7c2.4,0.4,3.2-1,3.2-2.3c0-1.1,0-4.1-0.1-8c-13.1,2.8-15.9-6.3-15.9-6.3c-2.1-5.4-5.2-6.9-5.2-6.9c-4.3-2.9,0.3-2.9,0.3-2.9c4.7,0.3,7.2,4.9,7.2,4.9c4.2,7.2,11,5.1,13.7,3.9c0.4-3,1.6-5.1,3-6.3c-10.5-1.2-21.4-5.2-21.4-23.3c0-5.1,1.8-9.3,4.8-12.6c-0.5-1.2-2.1-6,0.5-12.5c0,0,4-1.3,12.9,4.8c3.8-1,7.8-1.6,11.8-1.6c4,0,8,0.5,11.8,1.6c9-6.1,12.9-4.8,12.9-4.8c2.6,6.5,1,11.3,0.5,12.5c3,3.3,4.8,7.5,4.8,12.6c0,18.1-11,22.1-21.5,23.2c1.7,1.5,3.2,4.3,3.2,8.7c0,6.3-0.1,11.4-0.1,12.9c0,1.3,0.8,2.7,3.2,2.3C84.3,90,97.7,72.4,97.7,51.6C97.7,25.6,76.6,4.5,50.7,4.5z"/>
</svg>
