<?xml version="1.0" encoding="utf-8"?>
<!-- Generator: Adobe Illustrator 18.1.1, SVG Export Plug-In . SVG Version: 6.00 Build 0)  -->
<!DOCTYPE svg PUBLIC "-//W3C//DTD SVG 1.1//EN" "http://www.w3.org/Graphics/SVG/1.1/DTD/svg11.dtd">
<svg version="1.1" id="Layer_1" xmlns="http://www.w3.org/2000/svg" xmlns:xlink="http://www.w3.org/1999/xlink" x="0px" y="0px"
	 viewBox="0 0 200 200" enable-background="new 0 0 200 200" xml:space="preserve">
<circle fill="#C1272D" cx="100.5" cy="99.5" r="92.5"/>
<g id="Layer_2_1_">
	<g>
		<path fill="#FFFFFF" d="M131.1,73.9c-0.6,5.3-1.7,8.7-3.2,12.5c0,0,12.7,7.5,14.7,17.1c1.6,7.7-7.5,13.6-23.1,7
			c-16.4-6.9-27.2-18.7-30-32.2c-9,0.5-12.1,3.5-12.1,3.5s7.4,26.5,38.2,40.5C145.5,135.9,177.1,106.4,131.1,73.9z M106.4,41.2
			c11.6-2.3,18.4,38.8-2.2,56.4c0,0,4.1,5,9.9,7.5c0,0,17.5-16.2,14.8-46.6c-2.7-30.4-22-30.7-29.9-27.2c-8,3.5-19.6,14.4-22.4,33.2
			c4.7-1.7,7-2.1,13.4-2.5C90.1,62,93.8,43.7,106.4,41.2z M59.6,106.2C51.3,91.5,77.8,66.7,113,79c0,0,1.9-4.9,2.3-12
			c0,0-33.7-9.8-56.1,8.8c-15.1,12.5-17.1,31.8-4.6,43.1c10.2,9.2,28.1,8.6,45.1-2.5c-3.9-2.9-6.1-4.7-9.4-8.4
			C90.3,108.1,67.8,120.8,59.6,106.2z"/>
	</g>
</g>
<g>
	<path fill="#FDFDFE" d="M52.3,137.7c0-0.3,0.1-0.6,0.3-0.8c0.2-0.2,0.5-0.3,0.8-0.3c0.3,0,0.6,0.1,0.8,0.3c0.2,0.2,0.3,0.5,0.3,0.8
		v9.2h11.5v-9.2c0-0.3,0.1-0.6,0.3-0.8c0.2-0.2,0.5-0.3,0.8-0.3s0.6,0.1,0.8,0.3c0.2,0.2,0.3,0.5,0.3,0.8v20.7
		c0,0.3-0.1,0.6-0.3,0.8c-0.2,0.2-0.5,0.3-0.8,0.3s-0.6-0.1-0.8-0.3c-0.2-0.2-0.3-0.5-0.3-0.8v-9.2H54.6v9.2c0,0.3-0.1,0.6-0.3,0.8
		c-0.2,0.2-0.5,0.3-0.8,0.3c-0.3,0-0.6-0.1-0.8-0.3c-0.2-0.2-0.3-0.5-0.3-0.8V137.7z"/>
	<path fill="#FDFDFE" d="M84.6,151.5l-2.9,7.3c-0.1,0.1-0.1,0.3-0.2,0.4c-0.2,0.2-0.5,0.3-0.8,0.3s-0.6-0.1-0.8-0.3
		c-0.2-0.2-0.3-0.5-0.3-0.8c0-0.2,0-0.3,0.1-0.5l8-20.5c0.1-0.2,0.2-0.3,0.3-0.5c0.2-0.2,0.5-0.3,0.8-0.3c0.3,0,0.6,0.1,0.8,0.3
		c0.1,0.1,0.2,0.3,0.3,0.5l8,20.5c0.1,0.1,0.1,0.3,0.1,0.5c0,0.3-0.1,0.6-0.3,0.8c-0.2,0.2-0.5,0.3-0.8,0.3c-0.3,0-0.6-0.1-0.8-0.3
		c-0.1-0.1-0.2-0.2-0.3-0.4l-2.9-7.3H84.6z M91.9,149.2l-3.2-8.3l-3.2,8.3H91.9z"/>
	<path fill="#FDFDFE" d="M110.1,136.6h5.7c1.9,0,3.5,0.7,4.9,2c1.3,1.3,2,3,2,4.9c0,1.9-0.7,3.5-2,4.9c-0.6,0.6-1.3,1.1-2,1.4l5,8
		c0.1,0.2,0.2,0.4,0.2,0.6c0,0.3-0.1,0.6-0.3,0.8c-0.2,0.2-0.5,0.3-0.8,0.3c-0.4,0-0.7-0.2-1-0.6l-5.4-8.6c-0.2,0-0.3,0-0.5,0h-4.6
		v8c0,0.3-0.1,0.6-0.3,0.8c-0.2,0.2-0.5,0.3-0.8,0.3c-0.3,0-0.6-0.1-0.8-0.3c-0.2-0.2-0.3-0.5-0.3-0.8v-20.7c0-0.3,0.1-0.6,0.3-0.8
		S109.8,136.6,110.1,136.6z M111.3,138.9v9.2h4.6c1.3,0,2.4-0.4,3.2-1.3c0.9-0.9,1.3-2,1.3-3.2c0-1.3-0.4-2.4-1.3-3.2
		c-0.9-0.9-2-1.3-3.2-1.3H111.3z"/>
	<path fill="#FDFDFE" d="M140.7,136.6c3.2,0,5.9,1.1,8.1,3.4c2.2,2.2,3.4,4.9,3.4,8.1c0,3.2-1.1,5.9-3.4,8.1
		c-2.2,2.2-4.9,3.4-8.1,3.4h-4.6c-0.3,0-0.6-0.1-0.8-0.3c-0.2-0.2-0.3-0.5-0.3-0.8v-20.7c0-0.3,0.1-0.6,0.3-0.8
		c0.2-0.2,0.5-0.3,0.8-0.3H140.7z M140.7,157.3c2.5,0,4.7-0.9,6.5-2.7c1.8-1.8,2.7-4,2.7-6.5c0-2.5-0.9-4.7-2.7-6.5
		c-1.8-1.8-4-2.7-6.5-2.7h-3.4v18.4H140.7z"/>
</g>
</svg>
