<?xml version="1.0" encoding="utf-8"?>
<!-- Generator: Adobe Illustrator 18.1.1, SVG Export Plug-In . SVG Version: 6.00 Build 0)  -->
<svg version="1.2" baseProfile="tiny" id="Layer_1" xmlns="http://www.w3.org/2000/svg" xmlns:xlink="http://www.w3.org/1999/xlink"
	 x="0px" y="0px" viewBox="0 0 317.4 110.7" xml:space="preserve">
<g>
	<path fill="#50B848" d="M78,50.1l-2.5,0.3l-6.1,26.3h-5.6l-5.5-20h-0.1l-5.5,20H47l-6.2-26.3l-2.5-0.3v-3.7h11.1v3.7l-2.8,0.5
		l3.5,16.6l0.1,0l5.7-20.7h4.5l5.7,20.7l0.1,0l3.4-16.6l-2.8-0.5v-3.7H78V50.1z"/>
	<path fill="#50B848" d="M93.4,46.4c3.4,0,6.1,0.8,8.1,2.4c2,1.6,2.9,3.7,2.9,6.5c0,1.5-0.4,2.8-1.2,4c-0.8,1.1-2,2-3.6,2.7
		c1.8,0.5,3.1,1.4,3.9,2.6c0.8,1.2,1.2,2.7,1.2,4.6v1.5c0,0.7,0.1,1.2,0.4,1.5c0.3,0.4,0.7,0.6,1.3,0.7l0.7,0.1v3.7h-3.1
		c-2,0-3.4-0.5-4.2-1.6c-0.8-1.1-1.2-2.4-1.2-4.1v-1.7c0-1.5-0.4-2.6-1.2-3.5c-0.8-0.8-1.9-1.3-3.3-1.3h-5v8l3.2,0.6v3.6H79.8V73
		l3.2-0.6V50.7l-3.2-0.6v-3.7H83H93.4z M89.1,59.7h4.2c1.7,0,3-0.4,3.8-1.1c0.8-0.7,1.3-1.8,1.3-3.1s-0.4-2.4-1.3-3.2
		c-0.8-0.8-2.1-1.2-3.7-1.2h-4.3V59.7z"/>
	<path fill="#50B848" d="M136.7,61.8c0,4.4-1.3,8.1-3.8,11c-2.5,2.9-5.8,4.3-9.9,4.3c-4.1,0-7.4-1.4-9.9-4.3
		c-2.5-2.9-3.8-6.6-3.8-11v-0.5c0-4.4,1.3-8.1,3.8-11c2.5-2.9,5.8-4.4,9.9-4.4c4.1,0,7.4,1.5,10,4.4s3.8,6.6,3.8,11V61.8z
		 M130.7,61.3c0-3.1-0.7-5.7-2-7.6c-1.3-2-3.2-2.9-5.8-2.9s-4.4,1-5.7,2.9c-1.3,1.9-1.9,4.5-1.9,7.6v0.5c0,3.2,0.6,5.7,1.9,7.7
		c1.3,1.9,3.2,2.9,5.7,2.9c2.6,0,4.5-1,5.8-2.9c1.3-1.9,1.9-4.5,1.9-7.7V61.3z"/>
	<path fill="#50B848" d="M170,46.4v3.7l-3.2,0.6v26h-6l-12.2-20.3l-0.1,0v16.1l3.2,0.6v3.6h-12.5V73l3.2-0.6V50.7l-3.2-0.6v-3.7h3.2
		h6.1l12.2,20.3l0.1,0v-16l-3.2-0.6v-3.7h9.3H170z"/>
	<path fill="#50B848" d="M197,73.3c-1,1-2.4,1.8-4.3,2.6c-1.9,0.8-4.3,1.2-7.1,1.2c-4.1,0-7.4-1.4-10-4.1c-2.6-2.7-3.8-6.3-3.8-10.7
		v-1c0-4.5,1.3-8.2,3.8-11c2.5-2.8,5.8-4.3,9.9-4.3c2.4,0,4.5,0.4,6.5,1.1c2,0.8,3.6,1.8,4.9,3.1v6.1h-4.5l-0.9-4
		c-0.6-0.5-1.3-0.8-2.2-1.1c-0.9-0.3-1.9-0.4-3.1-0.4c-2.6,0-4.7,1-6.2,2.9c-1.5,2-2.2,4.5-2.2,7.7v1.1c0,3.1,0.7,5.5,2.2,7.4
		c1.4,1.8,3.5,2.8,6.2,2.8c1.2,0,2.2-0.1,3-0.3c0.8-0.2,1.3-0.4,1.8-0.7v-5.1l-4.3-0.3v-4.3H197V73.3z"/>
	<path fill="#50B848" d="M219.6,63.4h-10.2V72h9.8l0.3-3.6h4.6v8.3h-23.9V73l3.2-0.6V50.7l-3.2-0.6v-3.7h3.2h20.7v8.3h-4.7l-0.3-3.6
		h-9.7v7.6h10.2V63.4z"/>
	<path fill="#50B848" d="M250.2,56.1h-4.5l-0.8-4.2c-0.5-0.3-1.3-0.6-2.3-0.9c-1-0.2-2.1-0.4-3.2-0.4c-1.7,0-2.9,0.4-3.9,1
		c-0.9,0.7-1.4,1.6-1.4,2.7c0,1,0.5,1.9,1.4,2.5c0.9,0.7,2.6,1.4,4.9,2.1c3.3,0.9,5.9,2.2,7.6,3.7c1.7,1.5,2.6,3.5,2.6,6
		c0,2.6-1,4.6-3.1,6.1c-2,1.5-4.7,2.2-8.1,2.2c-2.4,0-4.6-0.4-6.5-1.1c-1.9-0.8-3.5-1.8-4.8-3.2v-6.3h4.7l0.6,4.3
		c0.6,0.5,1.4,0.9,2.5,1.2s2.2,0.5,3.5,0.5c1.7,0,2.9-0.3,3.8-1c0.9-0.7,1.3-1.6,1.3-2.7c0-1.2-0.4-2.1-1.2-2.8s-2.3-1.4-4.3-2
		c-3.6-1-6.3-2.3-8.1-3.7c-1.8-1.4-2.8-3.4-2.8-5.9c0-2.4,1-4.5,3.1-6s4.7-2.4,7.8-2.4c2.3,0,4.4,0.4,6.4,1.1
		c1.9,0.7,3.5,1.6,4.8,2.8V56.1z"/>
	<path fill="#50B848" d="M279.6,46.4v8.1H275l-0.2-3.4h-5.6v21.3l3.2,0.6v3.6h-12.5V73l3.2-0.6V51.1h-5.5l-0.2,3.4h-4.6v-8.1H279.6z
		"/>
</g>
<g>
	<path fill="#50B848" d="M202.6,86.1l-2.6,0.5l2.9,11.2l0.5,2.7h0.1l0.6-2.7l4.5-14.3h3.3l4.5,14.3l0.6,3h0.1l0.6-3l2.8-11.2
		l-2.6-0.5v-2.6h8.6v2.6l-2,0.3l-5.7,19.5h-3.3l-4.4-13.7l-0.9-3.8l-0.1,0l-0.9,3.8L205,106h-3.3L196,86.4l-2-0.3v-2.6h8.6V86.1z"/>
	<path fill="#50B848" d="M229.8,94.5c0-3.3,0.9-6.1,2.7-8.2c1.8-2.2,4.2-3.2,7.3-3.2c3.1,0,5.6,1.1,7.4,3.2c1.8,2.1,2.7,4.9,2.7,8.2
		V95c0,3.3-0.9,6.1-2.7,8.2c-1.8,2.1-4.2,3.2-7.3,3.2c-3.1,0-5.6-1.1-7.4-3.2c-1.8-2.1-2.7-4.9-2.7-8.2V94.5z M233.9,95
		c0,2.4,0.5,4.3,1.5,5.9c1,1.5,2.5,2.3,4.5,2.3c1.9,0,3.4-0.8,4.4-2.3c1-1.5,1.5-3.5,1.5-5.9v-0.5c0-2.4-0.5-4.3-1.5-5.9
		c-1-1.6-2.5-2.3-4.5-2.3c-2,0-3.4,0.8-4.4,2.3c-1,1.6-1.5,3.5-1.5,5.9V95z"/>
	<path fill="#50B848" d="M253.6,86.1v-2.6h7l0.4,3.3c0.6-1.1,1.4-2,2.4-2.7c0.9-0.7,2-1,3.2-1c0.3,0,0.6,0,1,0.1
		c0.3,0,0.6,0.1,0.8,0.2l-0.5,3.8l-2.3-0.1c-1.1,0-2,0.3-2.7,0.8c-0.7,0.5-1.3,1.2-1.7,2.1v12.9l3.4,0.6v2.6h-10.9v-2.6l3.4-0.6v-16
		L253.6,86.1z"/>
	<path fill="#50B848" d="M286,103.3c-0.7,1-1.6,1.8-2.7,2.3c-1.1,0.5-2.3,0.8-3.7,0.8c-2.7,0-4.9-1-6.4-3c-1.5-2-2.3-4.6-2.3-7.8
		v-0.4c0-3.6,0.8-6.5,2.3-8.7c1.5-2.2,3.7-3.3,6.5-3.3c1.3,0,2.5,0.2,3.5,0.7c1,0.5,1.9,1.2,2.6,2.1v-9.2l-3.4-0.6v-2.6h3.4h4.1
		v29.2l3.4,0.6v2.6h-6.9L286,103.3z M275,95.6c0,2.3,0.5,4.1,1.4,5.4c0.9,1.4,2.4,2.1,4.3,2.1c1.2,0,2.2-0.3,3.1-0.8
		c0.8-0.6,1.5-1.3,2.1-2.3V89.5c-0.5-0.9-1.2-1.7-2.1-2.2c-0.8-0.6-1.9-0.8-3-0.8c-2,0-3.4,0.8-4.3,2.4s-1.4,3.7-1.4,6.3V95.6z"/>
	<path fill="#50B848" d="M313.5,90.6h-3.1l-0.7-2.7c-0.5-0.5-1.1-0.8-1.9-1.1c-0.8-0.3-1.6-0.4-2.6-0.4c-1.5,0-2.5,0.3-3.2,1
		s-1.1,1.4-1.1,2.3c0,0.9,0.3,1.6,0.9,2.1c0.6,0.5,1.9,1,3.8,1.4c2.8,0.6,4.9,1.4,6.3,2.5c1.4,1,2.1,2.4,2.1,4.2
		c0,2-0.8,3.6-2.4,4.8c-1.6,1.2-3.7,1.8-6.3,1.8c-1.7,0-3.2-0.2-4.6-0.6s-2.6-1-3.6-1.7l0-5.1h3.1l0.8,3c0.5,0.4,1.1,0.7,1.9,0.9
		c0.8,0.2,1.6,0.3,2.5,0.3c1.5,0,2.6-0.3,3.4-0.9c0.8-0.6,1.2-1.4,1.2-2.3c0-0.9-0.3-1.6-1-2.2c-0.7-0.6-2-1.1-3.9-1.5
		c-2.7-0.6-4.8-1.4-6.2-2.4s-2.1-2.4-2.1-4.2c0-1.8,0.8-3.4,2.3-4.7c1.6-1.3,3.6-1.9,6.1-1.9c1.7,0,3.2,0.2,4.6,0.7
		c1.4,0.4,2.5,1.1,3.4,1.8L313.5,90.6z"/>
</g>
<g>
	<path fill="#50B848" d="M12.3,11.3v5.4h4.3v3h-4.3v13.6c0,1.1,0.2,1.8,0.7,2.2c0.4,0.4,1,0.6,1.7,0.6c0.4,0,0.8,0,1.2-0.1
		c0.4-0.1,0.8-0.1,1.1-0.2l0.6,2.8c-0.4,0.2-1,0.5-1.7,0.6c-0.7,0.2-1.5,0.2-2.2,0.2c-1.7,0-3-0.5-4-1.5c-1-1-1.5-2.6-1.5-4.7V19.7
		H4.6v-3h3.6v-5.4H12.3z"/>
	<path fill="#50B848" d="M20.2,36.6l3.4-0.6V10l-3.4-0.6V6.8h7.5v12.9c0.8-1.1,1.7-1.9,2.8-2.5c1.1-0.6,2.4-0.9,3.7-0.9
		c2.4,0,4.3,0.7,5.6,2.2c1.3,1.4,2,3.7,2,6.6V36l3.4,0.6v2.6H34.3v-2.6l3.4-0.6V25.1c0-1.9-0.4-3.2-1.2-4.1s-2-1.3-3.6-1.3
		c-1.1,0-2.1,0.3-3.1,0.8c-0.9,0.5-1.7,1.3-2.3,2.2V36l3.4,0.6v2.6H20.2V36.6z"/>
	<path fill="#50B848" d="M58.2,39.6c-3.1,0-5.6-1-7.5-3.1c-1.8-2.1-2.8-4.8-2.8-8.1v-0.9c0-3.2,1-5.9,2.9-8c1.9-2.1,4.2-3.2,6.8-3.2
		c3,0,5.3,0.9,6.9,2.7c1.6,1.8,2.3,4.3,2.3,7.3v2.6H52.2L52.2,29c0,2.2,0.6,3.9,1.6,5.3c1.1,1.4,2.5,2.1,4.4,2.1
		c1.4,0,2.6-0.2,3.6-0.6c1-0.4,1.9-0.9,2.7-1.6l1.6,2.7c-0.8,0.8-1.9,1.4-3.2,2C61.7,39.3,60.1,39.6,58.2,39.6z M57.6,19.5
		c-1.4,0-2.5,0.6-3.5,1.7c-1,1.2-1.6,2.6-1.8,4.3l0,0.1h10.4v-0.5c0-1.6-0.4-2.9-1.3-4C60.6,20,59.3,19.5,57.6,19.5z"/>
</g>
</svg>
