<?xml version="1.0" encoding="utf-8"?>
<!-- Generator: Adobe Illustrator 18.1.1, SVG Export Plug-In . SVG Version: 6.00 Build 0)  -->
<!DOCTYPE svg PUBLIC "-//W3C//DTD SVG 1.1//EN" "http://www.w3.org/Graphics/SVG/1.1/DTD/svg11.dtd">
<svg version="1.1" xmlns="http://www.w3.org/2000/svg" xmlns:xlink="http://www.w3.org/1999/xlink" x="0px" y="0px"
	 viewBox="0 0 100 100" enable-background="new 0 0 100 100" xml:space="preserve">
<g id="Figure-PhoneNo">
  <path d="M62.7,40.2c-2.6-2.6-6.1-4.1-9.8-4.1h0c-3.7,0-7.2,1.4-9.8,4.1c-2.6,2.6-4.1,6.1-4.1,9.8c0,3.7,1.4,7.2,4.1,9.8c2.6,2.6,6.1,4.1,9.8,4.1h0c3.7,0,7.2-1.4,9.8-4.1c2.6-2.6,4.1-6.1,4.1-9.8C66.8,46.3,65.3,42.8,62.7,40.2z M52.8,39.2c6,0,10.8,4.8,10.8,10.8c0,2.4-0.8,4.5-2,6.3L46.5,41.2C48.3,39.9,50.5,39.2,52.8,39.2L52.8,39.2L52.8,39.2z M45.2,57.6c-2-2-3.2-4.8-3.2-7.7c0-2.4,0.8-4.6,2.2-6.5l15.1,15.1c-1.8,1.4-4.1,2.2-6.5,2.2C49.9,60.8,47.2,59.7,45.2,57.6z"/>
  <path d="M96.4,67.8V32.2c0-5.1-4.2-9.4-9.4-9.4H14c-5.1,0-9.4,4.2-9.4,9.4v35.5c0,5.1,4.2,9.4,9.4,9.4h73 C92.1,77.1,96.4,72.9,96.4,67.8z M9.6,49.7c0-2.5,2.1-4.7,4.7-4.7c2.5,0,4.7,2.1,4.7,4.7s-2.1,4.7-4.7,4.7S9.6,52.2,9.6,49.7zM22.5,69.6V30.4h61.7v39.3H22.5z"/>
</g>
<g id="Figure-PhoneYes">
  <path d="M68.2,3.3H31.9c-5.3,0-9.5,4.3-9.5,9.5v74.5c0,5.3,4.3,9.5,9.5,9.5h36.3c5.3,0,9.5-4.3,9.5-9.5V12.8 C77.7,7.6,73.4,3.3,68.2,3.3z M49.7,91.8c-2.6,0-4.8-2.1-4.8-4.8c0-2.6,2.1-4.8,4.8-4.8s4.8,2.1,4.8,4.8S52.3,91.8,49.7,91.8z M70.1,78.7H30v-63h40.1V78.7z"/>
  <path fill="#010101" d="M45.8,58.7l-9.4-9.4l4.5-4.6l4.9,5l13.3-13.4l4.4,4.4L45.8,58.7z"/>
</svg>